<svg xmlns="http://www.w3.org/2000/svg" viewBox="0 -0.5 32 32" shape-rendering="crispEdges">
    <path stroke="#008080" d="M11 2h3M9 3h3M13 3h1M8 4h1M10 4h1M12 4h1M7 5h1M9 5h1M11 5h1M7 6h2M10 6h1M12 6h1M6 7h2M9 7h1M11 7h1M6 8h1M8 8h1M10 8h1M6 9h2M9 9h1M11 9h1M6 10h1M8 10h1M10 10h1M7 11h1M9 11h1M11 11h1M7 12h2M10 12h1M12 12h1M8 13h2M11 13h1M13 13h1M10 14h1M12 14h1M14 14h1M8 18h6M6 19h1M8 19h1M10 19h1M5 20h1M7 20h1M9 20h1M4 21h1M6 21h1M8 21h1M3 22h1M5 22h1M7 22h1M3 23h2M6 23h1M8 23h1M2 24h2M5 24h1M7 24h1M2 25h1M4 25h1M6 25h1M3 26h1M5 26h1M7 26h1M2 27h3M6 27h1" />
    <path stroke="#808080" d="M14 2h1M20 2h1M12 3h1M14 3h1M17 3h1M19 3h1M9 4h1M11 4h1M13 4h1M15 4h2M20 4h1M22 4h1M8 5h1M14 5h2M21 5h1M23 5h1M14 6h1M22 6h1M13 7h1M21 7h1M23 7h1M7 8h1M13 8h1M20 8h1M22 8h1M24 8h1M13 9h1M19 9h1M21 9h1M23 9h1M7 10h1M12 10h1M14 10h1M16 10h1M18 10h1M20 10h1M22 10h1M24 10h1M8 11h1M15 11h1M17 11h1M19 11h1M21 11h1M23 11h1M9 12h1M11 12h1M14 12h1M16 12h1M18 12h1M20 12h1M22 12h1M10 13h1M12 13h1M15 13h1M17 13h1M19 13h1M21 13h1M11 14h1M13 14h1M18 14h1M20 14h1M16 18h3M7 19h1M9 19h1M14 19h7M22 19h1M6 20h1M12 20h1M20 20h2M23 20h1M25 20h1M5 21h1M11 21h1M21 21h2M24 21h1M26 21h1M4 22h1M10 22h1M21 22h1M23 22h1M25 22h1M27 22h1M10 23h1M22 23h1M24 23h1M26 23h1M9 24h1M23 24h1M25 24h1M27 24h1M3 25h1M9 25h2M22 25h1M24 25h3M28 25h1M2 26h1M9 26h1M11 26h1M13 26h1M15 26h1M17 26h1M19 26h1M21 26h1M23 26h1M25 26h1M27 26h1M29 26h1M9 27h20" />
    <path stroke="#000000" d="M17 2h3M15 3h2M20 3h3M14 4h1M21 4h1M23 4h1M13 5h1M22 5h1M24 5h1M13 6h1M23 6h2M12 7h1M24 7h2M12 8h1M23 8h1M25 8h1M12 9h1M24 9h2M13 10h1M23 10h1M25 10h1M13 11h2M22 11h1M24 11h1M13 12h1M15 12h1M21 12h1M23 12h2M14 13h1M16 13h1M18 13h1M20 13h1M22 13h2M9 14h1M15 14h3M19 14h1M21 14h2M11 15h4M17 15h4M14 18h2M19 18h5M12 19h2M21 19h1M23 19h3M11 20h1M22 20h1M24 20h1M26 20h1M10 21h1M23 21h1M25 21h1M27 21h1M9 22h1M24 22h1M26 22h1M28 22h1M9 23h1M25 23h1M27 23h2M8 24h1M26 24h1M28 24h2M8 25h1M27 25h1M29 25h1M8 26h1M26 26h1M28 26h1M8 27h1M29 27h1M2 28h28" />
    <path stroke="#c0c0c0" d="M18 3h1M17 4h3M10 5h1M12 5h1M16 5h1M18 5h1M20 5h1M9 6h1M11 6h1M15 6h1M17 6h1M19 6h3M8 7h1M10 7h1M14 7h1M16 7h1M18 7h1M20 7h1M22 7h1M9 8h1M11 8h1M14 8h2M17 8h1M19 8h1M21 8h1M8 9h1M10 9h1M14 9h1M16 9h1M18 9h1M20 9h1M22 9h1M9 10h1M11 10h1M15 10h1M17 10h1M19 10h1M21 10h1M10 11h1M12 11h1M16 11h1M18 11h1M20 11h1M17 12h1M19 12h1M11 19h1M8 20h1M10 20h1M13 20h7M7 21h1M9 21h1M12 21h2M15 21h1M17 21h1M19 21h2M6 22h1M8 22h1M11 22h2M14 22h1M16 22h1M18 22h1M20 22h1M22 22h1M5 23h1M7 23h1M11 23h1M13 23h1M15 23h1M17 23h1M19 23h1M21 23h1M23 23h1M4 24h1M6 24h1M10 24h1M12 24h1M14 24h1M16 24h1M18 24h1M20 24h1M22 24h1M24 24h1M5 25h1M7 25h1M11 25h1M13 25h1M15 25h1M17 25h1M19 25h1M21 25h1M23 25h1M4 26h1M6 26h1M10 26h1M12 26h1M14 26h1M16 26h1M18 26h1M20 26h1M22 26h1M24 26h1M5 27h1M7 27h1" />
    <path stroke="#ffffff" d="M17 5h1M19 5h1M16 6h1M18 6h1M15 7h1M17 7h1M19 7h1M16 8h1M18 8h1M15 9h1M17 9h1M14 21h1M16 21h1M18 21h1M13 22h1M15 22h1M17 22h1M19 22h1M12 23h1M14 23h1M16 23h1M18 23h1M20 23h1M11 24h1M13 24h1M15 24h1M17 24h1M19 24h1M21 24h1M12 25h1M14 25h1M16 25h1M18 25h1M20 25h1" />
</svg>